<svg width="24" height="25" viewBox="0 0 24 25" fill="none" xmlns="http://www.w3.org/2000/svg">
<path fill-rule="evenodd" clip-rule="evenodd" d="M11.7814 7.64417C11.8512 7.71384 11.9066 7.7966 11.9444 7.88772C11.9822 7.97884 12.0017 8.07652 12.0017 8.17517C12.0017 8.27382 11.9822 8.3715 11.9444 8.46262C11.9066 8.55374 11.8512 8.6365 11.7814 8.70617L7.81086 12.6752L11.7814 16.6442C11.8511 16.7139 11.9064 16.7967 11.9441 16.8878C11.9819 16.9789 12.0013 17.0766 12.0013 17.1752C12.0013 17.2738 11.9819 17.3714 11.9441 17.4625C11.9064 17.5537 11.8511 17.6364 11.7814 17.7062C11.7116 17.7759 11.6288 17.8312 11.5377 17.869C11.4466 17.9067 11.349 17.9261 11.2504 17.9261C11.1517 17.9261 11.0541 17.9067 10.963 17.869C10.8719 17.8312 10.7891 17.7759 10.7194 17.7062L6.21936 13.2062C6.14952 13.1365 6.0941 13.0537 6.0563 12.9626C6.01849 12.8715 5.99902 12.7738 5.99902 12.6752C5.99902 12.5765 6.01849 12.4788 6.0563 12.3877C6.0941 12.2966 6.14952 12.2138 6.21936 12.1442L10.7194 7.64417C10.789 7.57432 10.8718 7.51891 10.9629 7.4811C11.054 7.44329 11.1517 7.42383 11.2504 7.42383C11.349 7.42383 11.4467 7.44329 11.5378 7.4811C11.6289 7.51891 11.7117 7.57432 11.7814 7.64417Z" fill="black" fill-opacity="0.6"/>
<path fill-rule="evenodd" clip-rule="evenodd" d="M6.75 12.6748C6.75 12.4759 6.82902 12.2851 6.96967 12.1445C7.11032 12.0038 7.30109 11.9248 7.5 11.9248H17.25C17.4489 11.9248 17.6397 12.0038 17.7803 12.1445C17.921 12.2851 18 12.4759 18 12.6748C18 12.8737 17.921 13.0645 17.7803 13.2051C17.6397 13.3458 17.4489 13.4248 17.25 13.4248H7.5C7.30109 13.4248 7.11032 13.3458 6.96967 13.2051C6.82902 13.0645 6.75 12.8737 6.75 12.6748Z" fill="black" fill-opacity="0.6"/>
</svg>
