<svg width="33" height="33" viewBox="0 0 33 33" fill="none" xmlns="http://www.w3.org/2000/svg">
<circle cx="16.5" cy="16.5" r="16.5" fill="white"/>
<path d="M22.9726 21.2642C26.828 16.034 23.1509 8.51788 16.5658 8.46576C16.5655 8.46576 16.5653 8.46571 16.565 8.46571C16.5643 8.46571 16.5636 8.46571 16.563 8.46566C16.5619 8.46566 16.5609 8.4656 16.5599 8.4656C16.5592 8.4656 16.5584 8.4656 16.5576 8.4656C16.5173 8.46459 16.4764 8.46459 16.4405 8.4656C16.4401 8.4656 16.4398 8.4656 16.4394 8.4656C16.4389 8.4656 16.4385 8.46566 16.438 8.46566C16.4377 8.46566 16.4372 8.46566 16.4369 8.46566C16.4367 8.46566 16.4366 8.46566 16.4364 8.46566C11.9742 8.49948 8.46289 12.1317 8.46289 16.5018C8.46289 20.9399 12.0609 24.5385 16.4996 24.5385C17.9273 24.5385 19.3542 24.1612 20.6257 23.3987L21.6459 24.4189C21.8049 24.5778 22.0634 24.5786 22.223 24.4189L23.8863 22.755C24.0456 22.5956 24.0456 22.3373 23.8863 22.178L22.9726 21.2642ZM14.0422 9.71807C13.3777 10.4686 12.8285 11.5297 12.458 12.8292H10.2834C11.1428 11.3806 12.4857 10.2862 14.0422 9.71807ZM9.86679 13.6453H12.2558C12.09 14.4284 11.9946 15.2484 11.9715 16.0937H9.29022C9.3369 15.2436 9.53047 14.4228 9.86679 13.6453ZM9.29022 16.9098H11.9715C11.9946 17.7551 12.09 18.5752 12.2559 19.3582H9.86679C9.53047 18.5808 9.3369 17.76 9.29022 16.9098ZM10.2834 20.1744H12.458C12.8285 21.4737 13.3775 22.5347 14.0417 23.2852C12.4855 22.7171 11.1429 21.6227 10.2834 20.1744ZM16.0915 23.6762C14.9532 23.4212 13.9109 22.1119 13.3097 20.1744H16.0915V23.6762ZM16.0915 19.3582H13.092C12.9149 18.5796 12.8124 17.7592 12.7878 16.9098H16.0915C16.0915 18.1441 16.0915 18.7946 16.0915 19.3582ZM16.0915 16.0937H12.7878C12.8124 15.2443 12.9149 14.4239 13.0919 13.6453H16.0916V16.0937H16.0915ZM16.0915 12.8291H13.3097C13.9106 10.8927 14.9522 9.5837 16.0916 9.32755V12.8291H16.0915ZM23.1323 19.3582H22.7281L23.0799 19.0064C23.3019 18.7843 23.1997 18.4048 22.8969 18.3237L20.9741 17.8084C21.001 17.5127 21.0192 17.2126 21.0276 16.9099H23.7089C23.6623 17.7598 23.4688 18.5806 23.1323 19.3582ZM23.7089 16.0937H21.0277C21.0046 15.2484 20.9091 14.4284 20.7434 13.6453H23.1323C23.4687 14.4227 23.6623 15.2436 23.7089 16.0937ZM22.7157 12.8292H20.5412C20.1707 11.5298 19.6216 10.4688 18.9575 9.71828C20.5138 10.2864 21.8564 11.3808 22.7157 12.8292ZM16.9077 9.32723C18.046 9.58232 19.0883 10.8916 19.6895 12.8291H16.9077V9.32723ZM16.9077 13.6453H19.9072C20.0843 14.4238 20.1868 15.2443 20.2114 16.0937H16.9077V13.6453H16.9077ZM20.2106 16.9098C20.2039 17.1398 20.1921 17.3684 20.174 17.594L17.6212 16.9098H20.2106ZM16.9077 23.6759V20.1744H16.9192L17.7522 23.2831C17.4788 23.4787 17.1951 23.611 16.9077 23.6759ZM18.9411 23.2983C19.1177 23.101 19.2864 22.8815 19.446 22.6408L19.657 22.4299L20.0293 22.8021C19.6799 22.9983 19.3159 23.1637 18.9411 23.2983ZM21.9344 23.5532L19.9455 21.5643C19.7862 21.405 19.5279 21.4048 19.3684 21.5642C18.7871 22.1455 18.9395 21.9931 18.397 22.5357L17.0767 17.6089C19.1298 18.1592 21.4413 18.7786 22.0031 18.9291L21.0317 19.9004C20.8723 20.0598 20.8723 20.3182 21.0317 20.4775L23.0207 22.4666L21.9344 23.5532ZM22.7173 20.1744C22.6149 20.3474 22.5055 20.5164 22.3888 20.6805L21.8974 20.189L21.912 20.1744H22.7173Z" fill="#EA138C"/>
</svg>
