<svg width="37" height="36" viewBox="0 0 37 36" fill="none" xmlns="http://www.w3.org/2000/svg">
<g filter="url(#filter0_d_1212_9808)">
<ellipse cx="18.5" cy="14" rx="14.5" ry="14" fill="white"/>
</g>
<g style="mix-blend-mode:darken">
<path d="M22.2342 16.7261C21.191 16.7261 20.2608 17.2506 19.6658 18.0612L14.6834 15.1247C14.8001 14.7711 14.8641 14.3896 14.8641 13.9962C14.8641 13.5988 14.8001 13.2213 14.6796 12.8637L19.6583 9.93117C20.2495 10.7458 21.1835 11.2743 22.2305 11.2743C24.0156 11.2743 25.473 9.74043 25.473 7.85295C25.473 5.96547 24.0193 4.43164 22.2305 4.43164C20.4416 4.43164 18.9879 5.96547 18.9879 7.85295C18.9879 8.25031 19.0519 8.63178 19.1725 8.98544L14.1975 11.918C13.6063 11.0994 12.6723 10.5749 11.6254 10.5749C9.84026 10.5749 8.38281 12.1087 8.38281 13.9962C8.38281 15.8837 9.84026 17.4175 11.6291 17.4175C12.6761 17.4175 13.61 16.889 14.2051 16.0705L19.1838 19.007C19.0632 19.3646 18.9955 19.75 18.9955 20.1474C18.9955 22.0309 20.4491 23.5687 22.238 23.5687C24.0269 23.5687 25.4805 22.0349 25.4805 20.1474C25.4805 18.2599 24.0231 16.7261 22.2342 16.7261ZM22.2342 5.5085C23.462 5.5085 24.46 6.56152 24.46 7.85692C24.46 9.15233 23.462 10.2053 22.2342 10.2053C21.0065 10.2053 20.0085 9.15233 20.0085 7.85692C20.0085 6.56152 21.0103 5.5085 22.2342 5.5085ZM11.6291 16.3446C10.4014 16.3446 9.4034 15.2916 9.4034 13.9962C9.4034 12.7008 10.4014 11.6478 11.6291 11.6478C12.8568 11.6478 13.8548 12.7008 13.8548 13.9962C13.8548 15.2916 12.8531 16.3446 11.6291 16.3446ZM22.2342 22.4919C21.0065 22.4919 20.0085 21.4388 20.0085 20.1434C20.0085 18.848 21.0065 17.795 22.2342 17.795C23.462 17.795 24.46 18.848 24.46 20.1434C24.46 21.4388 23.462 22.4919 22.2342 22.4919Z" fill="#555555" stroke="#555555" stroke-width="0.767038"/>
</g>
<defs>
<filter id="filter0_d_1212_9808" x="0" y="0" width="37" height="36" filterUnits="userSpaceOnUse" color-interpolation-filters="sRGB">
<feFlood flood-opacity="0" result="BackgroundImageFix"/>
<feColorMatrix in="SourceAlpha" type="matrix" values="0 0 0 0 0 0 0 0 0 0 0 0 0 0 0 0 0 0 127 0" result="hardAlpha"/>
<feOffset dy="4"/>
<feGaussianBlur stdDeviation="2"/>
<feComposite in2="hardAlpha" operator="out"/>
<feColorMatrix type="matrix" values="0 0 0 0 0 0 0 0 0 0 0 0 0 0 0 0 0 0 0.25 0"/>
<feBlend mode="normal" in2="BackgroundImageFix" result="effect1_dropShadow_1212_9808"/>
<feBlend mode="normal" in="SourceGraphic" in2="effect1_dropShadow_1212_9808" result="shape"/>
</filter>
</defs>
</svg>
