<svg width="35" height="35" viewBox="0 0 35 35" fill="none" xmlns="http://www.w3.org/2000/svg">
<path d="M17.4999 34.9999C27.1649 34.9999 34.9999 27.1649 34.9999 17.4999C34.9999 7.83499 27.1649 0 17.4999 0C7.83499 0 0 7.83499 0 17.4999C0 27.1649 7.83499 34.9999 17.4999 34.9999Z" fill="white"/>
<path d="M29.8894 5.21289C36.7034 12.0266 36.7039 23.0747 29.8891 29.8892C23.0751 36.7035 12.0266 36.7035 5.21289 29.8897L29.8894 5.21289Z" fill="white"/>
<path d="M27.6633 16.5512C29.0855 16.4362 30.0497 15.8011 30.4211 14.9398C29.9078 15.2493 28.3154 15.5867 27.4361 15.2651C27.3931 15.0627 27.3451 14.8695 27.2978 14.696C26.6278 12.2796 24.3336 10.3336 21.9299 10.5684C22.1243 10.4914 22.3221 10.4194 22.5184 10.3551C22.7828 10.2619 24.3353 10.0136 24.0911 9.47563C23.8849 9.00251 21.9883 9.83344 21.6312 9.94211C22.1026 9.76804 22.8822 9.4684 22.9654 8.93652C22.2431 9.03362 21.5343 9.36909 20.9867 9.85688C21.1842 9.64749 21.3343 9.39283 21.3663 9.11863C19.4393 10.327 18.3139 12.7632 17.4036 15.1267C16.6886 14.4464 16.0548 13.9104 15.4859 13.6129C13.891 12.7726 11.9839 11.8961 8.99023 10.805C8.89833 11.7775 9.47992 13.0711 11.156 13.931C10.7927 13.8833 10.1295 13.9901 9.59758 14.1147C9.81419 15.229 10.5202 16.1468 12.4337 16.591C11.5594 16.6475 11.1076 16.8428 10.6983 17.2638C11.0959 18.0388 12.0676 18.9508 13.8145 18.7635C11.8724 19.5856 13.0231 21.1089 14.604 20.8816C11.9069 23.6172 7.65458 23.4164 5.21289 21.1286C11.588 29.6589 25.4466 26.1732 27.511 17.9568C29.0585 17.9695 29.9681 17.4305 30.532 16.8362C29.6403 16.9849 28.3482 16.8315 27.6633 16.5512Z" fill="#EA138C"/>
</svg>
