<svg width="33" height="33" viewBox="0 0 33 33" fill="none" xmlns="http://www.w3.org/2000/svg">
<path d="M16.5 33C25.6127 33 33 25.6127 33 16.5C33 7.3873 25.6127 0 16.5 0C7.3873 0 0 7.3873 0 16.5C0 25.6127 7.3873 33 16.5 33Z" fill="white"/>
<path d="M22.0194 9.81836H10.9787C8.8126 9.81836 7.05664 11.5744 7.05664 13.7405V19.2597C7.05664 21.4259 8.81267 23.1818 10.9787 23.1818H22.0194C24.1856 23.1818 25.9415 21.4258 25.9415 19.2597V13.7405C25.9415 11.5744 24.1855 9.81836 22.0194 9.81836ZM19.3669 16.7686L14.2029 19.2315C14.0652 19.2972 13.9062 19.1969 13.9062 19.0445V13.9647C13.9062 13.81 14.0694 13.7098 14.2072 13.7797L19.3712 16.3966C19.525 16.4744 19.5222 16.6946 19.3669 16.7686Z" fill="#EA138C"/>
<path d="M22.0201 9.81836H16.3887V14.8847L19.372 16.3964C19.5257 16.4743 19.5229 16.6945 19.3676 16.7685L16.3887 18.1893V23.1818H22.0201C24.1863 23.1818 25.9422 21.4258 25.9422 19.2597V13.7405C25.9422 11.5744 24.1862 9.81836 22.0201 9.81836Z" fill="#EA138C"/>
</svg>
