<svg width="58" height="59" viewBox="0 0 58 59" fill="none" xmlns="http://www.w3.org/2000/svg">
<g filter="url(#filter0_d_551_759)">
<path d="M36.7611 36.3525L37.1238 36.5451L37.3832 36.2267C39.0298 34.2057 41.6085 32.8931 44.5066 32.8931C49.4867 32.8931 53.5 36.7348 53.5 41.4074C53.5 46.0808 49.4969 49.9218 44.5176 49.9218C39.5387 49.9218 35.5352 46.0707 35.5352 41.4074C35.5352 40.4237 35.7215 39.4674 36.0542 38.5778L36.2079 38.1669L35.8205 37.9611L21.2611 30.224L20.8965 30.0303L20.6373 30.3516C18.9909 32.3923 16.4019 33.7148 13.4934 33.7148C8.51333 33.7148 4.5 29.8731 4.5 25.2004C4.5 20.5274 8.51372 16.6861 13.4824 16.6861C16.3924 16.6861 18.9801 17.9992 20.6143 20.0375L20.8733 20.3606L21.2389 20.1664L35.7874 12.4398L36.1763 12.2332L36.0205 11.8213C35.6896 10.9464 35.5132 10.0013 35.5132 9.01436C35.5132 4.34097 39.5163 0.5 44.4956 0.5C49.4749 0.5 53.478 4.34097 53.478 9.01436C53.478 13.6874 49.4643 17.5287 44.4956 17.5287C41.5867 17.5287 38.998 16.2059 37.3629 14.1763L37.1039 13.8548L36.7392 14.0483L22.1797 21.7749L21.792 21.9806L21.9458 22.3917C22.2777 23.2791 22.4537 24.2144 22.4537 25.2004C22.4537 26.1766 22.2774 27.1235 21.9556 28.0018L21.8057 28.411L22.1906 28.6154L36.7611 36.3525ZM51.5154 9.02483C51.5154 5.31204 48.3489 2.33727 44.5066 2.33727C40.6759 2.33727 37.4978 5.3115 37.4978 9.02483C37.4978 12.7376 40.6643 15.7124 44.5066 15.7124C48.3489 15.7124 51.5154 12.7376 51.5154 9.02483ZM6.48458 25.2004C6.48458 28.9132 9.65109 31.888 13.4934 31.888C17.3241 31.888 20.5022 28.9137 20.5022 25.2004C20.5022 21.4876 17.3357 18.5129 13.4934 18.5129C9.65109 18.5129 6.48458 21.4876 6.48458 25.2004ZM37.4978 41.3969C37.4978 45.1097 40.6643 48.0845 44.5066 48.0845C48.3489 48.0845 51.5154 45.1097 51.5154 41.3969C51.5154 37.6842 48.3489 34.7094 44.5066 34.7094C40.6643 34.7094 37.4978 37.6842 37.4978 41.3969Z" fill="black" stroke="black"/>
</g>
<defs>
<filter id="filter0_d_551_759" x="0" y="0" width="58" height="58.4219" filterUnits="userSpaceOnUse" color-interpolation-filters="sRGB">
<feFlood flood-opacity="0" result="BackgroundImageFix"/>
<feColorMatrix in="SourceAlpha" type="matrix" values="0 0 0 0 0 0 0 0 0 0 0 0 0 0 0 0 0 0 127 0" result="hardAlpha"/>
<feOffset dy="4"/>
<feGaussianBlur stdDeviation="2"/>
<feComposite in2="hardAlpha" operator="out"/>
<feColorMatrix type="matrix" values="0 0 0 0 0 0 0 0 0 0 0 0 0 0 0 0 0 0 0.8 0"/>
<feBlend mode="normal" in2="BackgroundImageFix" result="effect1_dropShadow_551_759"/>
<feBlend mode="normal" in="SourceGraphic" in2="effect1_dropShadow_551_759" result="shape"/>
</filter>
</defs>
</svg>
