<svg width="27" height="27" viewBox="0 0 27 27" fill="none" xmlns="http://www.w3.org/2000/svg">
<path d="M3.4405 8.15022C3.49312 7.00048 3.67315 6.25895 3.91661 5.62952L3.91988 5.62082C4.16114 4.98032 4.53908 4.40008 5.0274 3.9205L5.03425 3.91377L5.04098 3.90692C5.52096 3.41798 6.1014 3.04041 6.74134 2.79979L6.75238 2.79557C7.38038 2.55135 8.12045 2.37199 9.27115 2.31938M3.4405 8.15022C3.38519 9.37867 3.37109 9.75947 3.37109 12.9445C3.37109 16.1304 3.38442 16.5103 3.44048 17.739M3.4405 8.15022L3.4405 8.46009M3.92088 20.2688C4.1615 20.9088 4.53907 21.4892 5.02801 21.9692L5.03485 21.9759L5.04157 21.9828C5.52118 22.4711 6.10143 22.849 6.74195 23.0903L6.75151 23.0939C7.38008 23.3377 8.12051 23.5171 9.27115 23.5697M3.92088 20.2688L3.91666 20.2578C3.67244 19.6298 3.49308 18.8897 3.44048 17.739M3.92088 20.2688L3.90646 20.1929M3.44048 17.739L3.45932 17.8382M3.44048 17.739L3.44048 17.4284M3.90646 20.1929L3.45932 17.8382M3.90646 20.1929C3.71655 19.6912 3.521 18.9912 3.45932 17.8382M3.90646 20.1929C3.91312 20.2105 3.91977 20.2278 3.92641 20.245C4.16725 20.8942 4.54884 21.4821 5.04376 21.9663C5.52785 22.4612 6.1155 22.8427 6.76453 23.0835C7.28539 23.2864 8.01932 23.4984 9.27098 23.5558C10.5341 23.6133 10.9244 23.625 14.0656 23.625C17.2069 23.625 17.5975 23.6133 18.8606 23.5558C20.1138 23.4983 20.8469 23.2851 21.3659 23.0838C22.0153 22.8431 22.6033 22.4614 23.0875 21.9663C23.5823 21.4823 23.9638 20.8946 24.2046 20.2456C24.4075 19.7248 24.6195 18.9909 24.6769 17.7392C24.7344 16.4761 24.7461 16.085 24.7461 12.9445C24.7461 9.80406 24.7343 9.41269 24.6769 8.14955C24.6191 6.8898 24.404 6.15565 24.2018 5.63616C23.9374 4.95363 23.6021 4.43742 23.0867 3.92206C22.5724 3.40874 22.0576 3.07327 21.3745 2.80861C20.8532 2.60479 20.1185 2.39097 18.8606 2.33332C18.7512 2.32834 18.6484 2.32371 18.5497 2.31939M3.45932 17.8382C3.45758 17.8057 3.45594 17.7728 3.45442 17.7395C3.44943 17.6301 3.44479 17.5271 3.44048 17.4284M9.27115 2.31938C10.4999 2.26332 10.8806 2.25 14.0656 2.25C17.2507 2.25 17.6312 2.26408 18.8596 2.31939M9.27115 2.31938L9.58182 2.31938M18.8596 2.31939L18.5497 2.31939M18.8596 2.31939C20.0096 2.37199 20.7512 2.55199 21.3807 2.79548L21.3894 2.79879C22.0299 3.04005 22.6101 3.41799 23.0897 3.9063L23.0963 3.91308L23.1031 3.91975C23.5915 4.39937 23.9694 4.97977 24.2105 5.62045L24.2146 5.63129C24.4588 6.25928 24.6382 6.99936 24.6908 8.15006M9.58182 2.31938L18.5497 2.31939M9.58182 2.31938C10.6223 2.27389 11.1974 2.2641 14.0656 2.2641C16.9342 2.2641 17.5091 2.27389 18.5497 2.31939M9.58182 2.31938C9.48307 2.3237 9.38014 2.32834 9.27065 2.33332C8.01742 2.39076 7.28436 2.60397 6.76535 2.80528C6.11351 3.04691 5.52357 3.43053 5.03829 3.92835C4.52774 4.441 4.19355 4.95474 3.92974 5.63557C3.72591 6.15691 3.51205 6.89191 3.4544 8.14989C3.44943 8.25902 3.44481 8.36164 3.4405 8.46009M24.6908 17.739C24.6382 18.8897 24.4588 19.6301 24.2151 20.2587L24.2114 20.2683C23.9701 20.9088 23.5922 21.489 23.1039 21.9686L23.097 21.9753L23.0903 21.9822C22.6103 22.4711 22.0299 22.8487 21.3899 23.0893L21.3789 23.0935C20.7509 23.3377 20.0108 23.5171 18.8601 23.5697M3.44048 17.4284C3.39498 16.3879 3.38519 15.8128 3.38519 12.9445C3.38519 10.0754 3.39497 9.50112 3.4405 8.46009M3.44048 17.4284L3.4405 8.46009M12.1635 17.5366C12.7666 17.7864 13.4129 17.915 14.0656 17.915C15.3839 17.915 16.6481 17.3913 17.5803 16.4592C18.5124 15.527 19.0361 14.2628 19.0361 12.9445C19.0361 11.6263 18.5124 10.3621 17.5803 9.42992C16.6481 8.49779 15.3839 7.97412 14.0656 7.97412C13.4129 7.97412 12.7666 8.10268 12.1635 8.35247C11.5605 8.60226 11.0126 8.96838 10.551 9.42992C10.0895 9.89147 9.72336 10.4394 9.47357 11.0424C9.22378 11.6455 9.09522 12.2918 9.09522 12.9445C9.09522 13.5973 9.22378 14.2436 9.47357 14.8466C9.72336 15.4497 10.0895 15.9976 10.551 16.4592C11.0126 16.9207 11.5605 17.2868 12.1635 17.5366ZM10.5399 9.41885C11.475 8.48378 12.7433 7.95846 14.0656 7.95846C15.388 7.95846 16.6563 8.48378 17.5913 9.41885C18.5264 10.3539 19.0517 11.6222 19.0517 12.9445C19.0517 14.2669 18.5264 15.5352 17.5913 16.4702C16.6563 17.4053 15.388 17.9306 14.0656 17.9306C12.7433 17.9306 11.475 17.4053 10.5399 16.4702C9.60488 15.5352 9.07956 14.2669 9.07956 12.9445C9.07956 11.6222 9.60488 10.3539 10.5399 9.41885ZM21.8594 6.79758C21.8594 7.17607 21.709 7.53907 21.4414 7.8067C21.1737 8.07434 20.8108 8.22469 20.4323 8.22469C20.0538 8.22469 19.6908 8.07434 19.4231 7.8067C19.1555 7.53907 19.0051 7.17607 19.0051 6.79758C19.0051 6.41909 19.1555 6.05609 19.4231 5.78846C19.6908 5.52082 20.0538 5.37047 20.4323 5.37047C20.8108 5.37047 21.1737 5.52082 21.4414 5.78846C21.709 6.05609 21.8594 6.41909 21.8594 6.79758Z" stroke="#606060" stroke-width="1.55963" stroke-linejoin="round"/>
</svg>
