<svg width="33" height="33" viewBox="0 0 33 33" fill="none" xmlns="http://www.w3.org/2000/svg">
<path d="M4.20984 9.96138C4.27414 8.55614 4.49418 7.64983 4.79174 6.88052L4.79574 6.8699C5.09061 6.08706 5.55254 5.37788 6.14937 4.79172L6.15774 4.7835L6.16597 4.77512C6.75261 4.17753 7.46204 3.71605 8.24419 3.42196L8.25769 3.4168C9.02523 3.11831 9.92977 2.8991 11.3362 2.8348M4.20984 9.96138C4.14223 11.4628 4.125 11.9282 4.125 15.8211C4.125 19.7149 4.14128 20.1793 4.2098 21.681M4.20984 9.96138L4.20983 10.3401M4.79696 24.773C5.09105 25.5552 5.55253 26.2646 6.15012 26.8513L6.15849 26.8595L6.1667 26.8678C6.75289 27.4647 7.46208 27.9266 8.24493 28.2215L8.25662 28.2259C9.02487 28.5239 9.92984 28.7431 11.3362 28.8074M4.79696 24.773L4.7918 24.7595C4.49331 23.992 4.2741 23.0875 4.2098 21.681M4.79696 24.773L4.77933 24.6802M4.2098 21.681L4.23283 21.8023M4.2098 21.681L4.2098 21.3014M4.77933 24.6802L4.23283 21.8023M4.77933 24.6802C4.54723 24.067 4.30822 23.2114 4.23283 21.8023M4.77933 24.6802C4.78747 24.7017 4.79561 24.7229 4.80372 24.7438C5.09808 25.5374 5.56447 26.2559 6.16937 26.8478C6.76103 27.4525 7.47927 27.9189 8.27254 28.2132C8.90914 28.4612 9.80616 28.7203 11.336 28.7904C12.8798 28.8607 13.3568 28.875 17.1961 28.875C21.0354 28.875 21.5128 28.8606 23.0567 28.7904C24.5884 28.7202 25.4843 28.4596 26.1187 28.2136C26.9124 27.9194 27.631 27.4529 28.2229 26.8477C28.8276 26.2561 29.2939 25.5379 29.5882 24.7447C29.8362 24.1081 30.0953 23.211 30.1654 21.6813C30.2357 20.1374 30.25 19.6595 30.25 15.8211C30.25 11.9827 30.2356 11.5044 30.1654 9.96057C30.0948 8.42087 29.8319 7.52357 29.5847 6.88864C29.2616 6.05443 28.8518 5.42351 28.2219 4.79363C27.5933 4.16624 26.964 3.75621 26.1292 3.43275C25.492 3.18363 24.5941 2.9223 23.0567 2.85184C22.923 2.84575 22.7973 2.84009 22.6767 2.83482M4.23283 21.8023C4.2307 21.7625 4.2287 21.7223 4.22684 21.6817C4.22075 21.5478 4.21508 21.422 4.2098 21.3014M11.3362 2.8348C12.838 2.76628 13.3032 2.75 17.1961 2.75C21.0889 2.75 21.554 2.76721 23.0554 2.83482M11.3362 2.8348L11.7159 2.8348M23.0554 2.83482L22.6767 2.83482M23.0554 2.83482C24.4609 2.8991 25.3673 3.1191 26.1367 3.41669L26.1473 3.42074C26.9302 3.71561 27.6393 4.17754 28.2255 4.77437L28.2336 4.78266L28.2419 4.7908C28.8389 5.37701 29.3007 6.08638 29.5954 6.86944L29.6004 6.88269C29.8989 7.65023 30.1181 8.55477 30.1824 9.96119M11.7159 2.8348L22.6767 2.83482M11.7159 2.8348C12.9876 2.7792 13.6904 2.76723 17.1961 2.76723C20.7021 2.76723 21.4048 2.7792 22.6767 2.83482M11.7159 2.8348C11.5952 2.84008 11.4694 2.84575 11.3356 2.85184C9.80385 2.92203 8.90788 3.18263 8.27353 3.42867C7.47684 3.724 6.7558 4.19287 6.16269 4.80131C5.53867 5.42789 5.13023 6.0558 4.80779 6.88792C4.55866 7.52511 4.29728 8.42344 4.22682 9.96097C4.22075 10.0944 4.2151 10.2198 4.20983 10.3401M30.1824 21.681C30.1181 23.0874 29.8989 23.9924 29.601 24.7606L29.5965 24.7723C29.3016 25.5552 28.8397 26.2643 28.2429 26.8505L28.2345 26.8587L28.2263 26.8671C27.6396 27.4647 26.9302 27.9262 26.148 28.2203L26.1345 28.2254C25.367 28.5239 24.4625 28.7431 23.056 28.8074M4.2098 21.3014C4.1542 20.0297 4.14223 19.3268 4.14223 15.8211C4.14223 12.3144 4.15419 11.6125 4.20983 10.3401M4.2098 21.3014L4.20983 10.3401M14.8713 21.4337C15.6084 21.7389 16.3983 21.8961 17.1961 21.8961C18.8073 21.8961 20.3525 21.256 21.4918 20.1168C22.6311 18.9775 23.2711 17.4323 23.2711 15.8211C23.2711 14.2099 22.6311 12.6647 21.4918 11.5255C20.3525 10.3862 18.8073 9.74614 17.1961 9.74614C16.3983 9.74614 15.6084 9.90328 14.8713 10.2086C14.1343 10.5139 13.4646 10.9613 12.9005 11.5255C12.3364 12.0896 11.8889 12.7593 11.5836 13.4963C11.2783 14.2334 11.1212 15.0233 11.1212 15.8211C11.1212 16.6189 11.2783 17.4089 11.5836 18.1459C11.8889 18.883 12.3364 19.5527 12.9005 20.1168C13.4646 20.6809 14.1343 21.1284 14.8713 21.4337ZM12.8869 11.5119C14.0298 10.3691 15.5799 9.727 17.1961 9.727C18.8124 9.727 20.3624 10.3691 21.5053 11.5119C22.6482 12.6548 23.2902 14.2049 23.2902 15.8211C23.2902 17.4374 22.6482 18.9874 21.5053 20.1303C20.3624 21.2732 18.8124 21.9152 17.1961 21.9152C15.5799 21.9152 14.0298 21.2732 12.8869 20.1303C11.7441 18.9874 11.102 17.4374 11.102 15.8211C11.102 14.2049 11.7441 12.6548 12.8869 11.5119ZM26.7218 8.30815C26.7218 8.77076 26.538 9.21442 26.2109 9.54153C25.8838 9.86864 25.4401 10.0524 24.9775 10.0524C24.5149 10.0524 24.0713 9.86864 23.7442 9.54153C23.4171 9.21442 23.2333 8.77076 23.2333 8.30815C23.2333 7.84555 23.4171 7.40189 23.7442 7.07478C24.0713 6.74767 24.5149 6.5639 24.9775 6.5639C25.4401 6.5639 25.8838 6.74767 26.2109 7.07478C26.538 7.40189 26.7218 7.84555 26.7218 8.30815Z" stroke="#A08DA6" stroke-width="1.55963" stroke-linejoin="round"/>
</svg>
