<svg width="27" height="27" viewBox="0 0 27 27" fill="none" xmlns="http://www.w3.org/2000/svg">
<path d="M3.44441 8.15022C3.49703 7.00048 3.67705 6.25895 3.92051 5.62952L3.92379 5.62082C4.16505 4.98032 4.54299 4.40008 5.0313 3.9205L5.03815 3.91377L5.04488 3.90692C5.52486 3.41798 6.1053 3.04041 6.74525 2.79979L6.75629 2.79557C7.38428 2.55135 8.12436 2.37199 9.27506 2.31938M3.44441 8.15022C3.3891 9.37867 3.375 9.75947 3.375 12.9445C3.375 16.1304 3.38832 16.5103 3.44438 17.739M3.44441 8.15022L3.44441 8.46009M3.92479 20.2688C4.16541 20.9088 4.54298 21.4892 5.03192 21.9692L5.03876 21.9759L5.04548 21.9828C5.52509 22.4711 6.10534 22.849 6.74585 23.0903L6.75541 23.0939C7.38398 23.3377 8.12442 23.5171 9.27506 23.5697M3.92479 20.2688L3.92057 20.2578C3.67635 19.6298 3.49699 18.8897 3.44438 17.739M3.92479 20.2688L3.91036 20.1929M3.44438 17.739L3.46322 17.8382M3.44438 17.739L3.44438 17.4284M3.91036 20.1929L3.46322 17.8382M3.91036 20.1929C3.72046 19.6912 3.52491 18.9912 3.46322 17.8382M3.91036 20.1929C3.91702 20.2105 3.92368 20.2278 3.93032 20.245C4.17116 20.8942 4.55275 21.4821 5.04767 21.9663C5.53175 22.4612 6.1194 22.8427 6.76844 23.0835C7.2893 23.2864 8.02322 23.4984 9.27488 23.5558C10.538 23.6133 10.9283 23.625 14.0695 23.625C17.2108 23.625 17.6014 23.6133 18.8645 23.5558C20.1178 23.4983 20.8508 23.2851 21.3698 23.0838C22.0192 22.8431 22.6072 22.4614 23.0915 21.9663C23.5862 21.4823 23.9677 20.8946 24.2085 20.2456C24.4114 19.7248 24.6234 18.9909 24.6808 17.7392C24.7383 16.4761 24.75 16.085 24.75 12.9445C24.75 9.80406 24.7383 9.41269 24.6808 8.14955C24.623 6.8898 24.4079 6.15565 24.2057 5.63616C23.9413 4.95363 23.606 4.43742 23.0906 3.92206C22.5763 3.40874 22.0615 3.07327 21.3784 2.80861C20.8571 2.60479 20.1224 2.39097 18.8645 2.33332C18.7552 2.32834 18.6523 2.32371 18.5536 2.31939M3.46322 17.8382C3.46148 17.8057 3.45985 17.7728 3.45832 17.7395C3.45334 17.6301 3.4487 17.5271 3.44438 17.4284M9.27506 2.31938C10.5038 2.26332 10.8845 2.25 14.0695 2.25C17.2546 2.25 17.6351 2.26408 18.8635 2.31939M9.27506 2.31938L9.58573 2.31938M18.8635 2.31939L18.5536 2.31939M18.8635 2.31939C20.0135 2.37199 20.7551 2.55199 21.3846 2.79548L21.3933 2.79879C22.0338 3.04005 22.614 3.41799 23.0936 3.9063L23.1003 3.91308L23.107 3.91975C23.5954 4.39937 23.9733 4.97977 24.2144 5.62045L24.2185 5.63129C24.4627 6.25928 24.6421 6.99936 24.6947 8.15006M9.58573 2.31938L18.5536 2.31939M9.58573 2.31938C10.6262 2.27389 11.2013 2.2641 14.0695 2.2641C16.9381 2.2641 17.513 2.27389 18.5536 2.31939M9.58573 2.31938C9.48698 2.3237 9.38404 2.32834 9.27455 2.33332C8.02133 2.39076 7.28827 2.60397 6.76925 2.80528C6.11741 3.04691 5.52748 3.43053 5.0422 3.92835C4.53164 4.441 4.19746 4.95474 3.93365 5.63557C3.72981 6.15691 3.51596 6.89191 3.45831 8.14989C3.45334 8.25902 3.44872 8.36164 3.44441 8.46009M24.6947 17.739C24.6421 18.8897 24.4627 19.6301 24.219 20.2587L24.2153 20.2683C23.974 20.9088 23.5961 21.489 23.1078 21.9686L23.1009 21.9753L23.0942 21.9822C22.6142 22.4711 22.0338 22.8487 21.3938 23.0893L21.3828 23.0935C20.7548 23.3377 20.0147 23.5171 18.864 23.5697M3.44438 17.4284C3.39889 16.3879 3.3891 15.8128 3.3891 12.9445C3.3891 10.0754 3.39888 9.50112 3.44441 8.46009M3.44438 17.4284L3.44441 8.46009M12.1675 17.5366C12.7705 17.7864 13.4168 17.915 14.0696 17.915C15.3878 17.915 16.652 17.3913 17.5842 16.4592C18.5163 15.527 19.04 14.2628 19.04 12.9445C19.04 11.6263 18.5163 10.3621 17.5842 9.42992C16.652 8.49779 15.3878 7.97412 14.0696 7.97412C13.4168 7.97412 12.7705 8.10268 12.1675 8.35247C11.5644 8.60226 11.0165 8.96838 10.5549 9.42992C10.0934 9.89147 9.72726 10.4394 9.47748 11.0424C9.22769 11.6455 9.09912 12.2918 9.09912 12.9445C9.09912 13.5973 9.22769 14.2436 9.47748 14.8466C9.72726 15.4497 10.0934 15.9976 10.5549 16.4592C11.0165 16.9207 11.5644 17.2868 12.1675 17.5366ZM10.5439 9.41885C11.4789 8.48378 12.7472 7.95846 14.0696 7.95846C15.3919 7.95846 16.6602 8.48378 17.5953 9.41885C18.5303 10.3539 19.0556 11.6222 19.0556 12.9445C19.0556 14.2669 18.5303 15.5352 17.5953 16.4702C16.6602 17.4053 15.3919 17.9306 14.0696 17.9306C12.7472 17.9306 11.4789 17.4053 10.5439 16.4702C9.60878 15.5352 9.08346 14.2669 9.08346 12.9445C9.08346 11.6222 9.60878 10.3539 10.5439 9.41885ZM21.8633 6.79758C21.8633 7.17607 21.7129 7.53907 21.4453 7.8067C21.1777 8.07434 20.8147 8.22469 20.4362 8.22469C20.0577 8.22469 19.6947 8.07434 19.427 7.8067C19.1594 7.53907 19.0091 7.17607 19.0091 6.79758C19.0091 6.41909 19.1594 6.05609 19.427 5.78846C19.6947 5.52082 20.0577 5.37047 20.4362 5.37047C20.8147 5.37047 21.1777 5.52082 21.4453 5.78846C21.7129 6.05609 21.8633 6.41909 21.8633 6.79758Z" stroke="#EA138C" stroke-width="1.55963" stroke-linejoin="round"/>
</svg>
