<svg width="39" height="39" viewBox="0 0 39 39" fill="none" xmlns="http://www.w3.org/2000/svg">
<path d="M16.1571 32.3143C25.0805 32.3143 32.3143 25.0805 32.3143 16.1571C32.3143 7.2338 25.0805 0 16.1571 0C7.2338 0 0 7.2338 0 16.1571C0 25.0805 7.2338 32.3143 16.1571 32.3143Z" fill="white"/>
<path d="M19.8944 6.90918H12.4183C9.37999 6.90918 6.9082 9.38097 6.9082 12.4193V19.8954C6.9082 22.9336 9.37999 25.4056 12.4184 25.4056H19.8945C22.9327 25.4056 25.4047 22.9337 25.4047 19.8954V12.4193C25.4046 9.38097 22.9327 6.90918 19.8944 6.90918ZM23.5439 19.8955C23.5439 21.911 21.91 23.5449 19.8945 23.5449H12.4184C10.4029 23.5449 8.76899 21.911 8.76899 19.8955V12.4193C8.76899 10.4039 10.4029 8.7699 12.4184 8.7699H19.8945C21.91 8.7699 23.5439 10.4039 23.5439 12.4193V19.8955Z" fill="#EA138C"/>
<path d="M16.1569 11.373C13.5192 11.373 11.373 13.5192 11.373 16.1569C11.373 18.7945 13.5192 20.9407 16.1569 20.9407C18.7947 20.9407 20.9407 18.7947 20.9407 16.1569C20.9407 13.5192 18.7947 11.373 16.1569 11.373ZM16.1569 19.0799C14.5426 19.0799 13.2338 17.7714 13.2338 16.1569C13.2338 14.5425 14.5426 13.2338 16.1569 13.2338C17.7713 13.2338 19.0799 14.5424 19.0799 16.1569C19.0799 17.7713 17.7713 19.0799 16.1569 19.0799Z" fill="#EA138C"/>
<path d="M22.0954 11.41C22.0954 12.043 21.5822 12.5563 20.9491 12.5563C20.316 12.5563 19.8027 12.043 19.8027 11.41C19.8027 10.7769 20.316 10.2637 20.9491 10.2637C21.5823 10.2637 22.0954 10.7768 22.0954 11.41Z" fill="#EA138C"/>
<path d="M19.8954 6.90918H16.1211V8.7699H19.8954C21.9109 8.7699 23.5448 10.4039 23.5448 12.4193V19.8955C23.5448 21.911 21.9109 23.5449 19.8954 23.5449H16.1211V25.4056H19.8954C22.9336 25.4056 25.4055 22.9337 25.4055 19.8954V12.4193C25.4055 9.38097 22.9337 6.90918 19.8954 6.90918Z" fill="#EA138C"/>
<path d="M16.1573 11.373C16.1451 11.373 16.1333 11.3739 16.1211 11.3739V13.2347C16.1331 13.2345 16.1451 13.2338 16.1573 13.2338C17.7717 13.2338 19.0803 14.5424 19.0803 16.1569C19.0803 17.7713 17.7718 19.0799 16.1573 19.0799C16.1451 19.0799 16.1331 19.0792 16.1211 19.0791V20.9398C16.1333 20.9399 16.1451 20.9407 16.1573 20.9407C18.7951 20.9407 20.941 18.7947 20.941 16.1569C20.941 13.5192 18.7951 11.373 16.1573 11.373Z" fill="#EA138C"/>
</svg>
