<svg width="25" height="26" viewBox="0 0 25 26" fill="none" xmlns="http://www.w3.org/2000/svg">
<path d="M22.9163 3.76013V22.2405C22.9163 22.663 22.7549 23.0683 22.4677 23.367C22.1804 23.6658 21.7908 23.8337 21.3845 23.8337H3.61487C3.2086 23.8337 2.81896 23.6658 2.53168 23.367C2.2444 23.0683 2.08301 22.663 2.08301 22.2405V3.76013C2.08301 3.3376 2.2444 2.93238 2.53168 2.63361C2.81896 2.33484 3.2086 2.16699 3.61487 2.16699H21.3845C21.7908 2.16699 22.1804 2.33484 22.4677 2.63361C22.7549 2.93238 22.9163 3.3376 22.9163 3.76013V3.76013ZM8.21046 10.4513H5.14673V20.6474H8.21046V10.4513ZM8.48619 6.9464C8.48781 6.70539 8.44376 6.4664 8.35656 6.24309C8.26937 6.01978 8.14073 5.81652 7.978 5.64491C7.81527 5.4733 7.62163 5.33671 7.40814 5.24293C7.19465 5.14916 6.96549 5.10003 6.73374 5.09836H6.6786C6.20732 5.09836 5.75534 5.29307 5.42209 5.63964C5.08885 5.98622 4.90163 6.45627 4.90163 6.9464C4.90163 7.43653 5.08885 7.90659 5.42209 8.25316C5.75534 8.59974 6.20732 8.79444 6.6786 8.79444V8.79444C6.91036 8.80037 7.14097 8.75875 7.35726 8.67196C7.57355 8.58516 7.77128 8.4549 7.93914 8.2886C8.10701 8.12231 8.24172 7.92324 8.33559 7.70279C8.42945 7.48233 8.48063 7.24479 8.48619 7.00376V6.9464ZM19.8526 14.4533C19.8526 11.3881 17.9776 10.1964 16.1149 10.1964C15.505 10.1646 14.8977 10.2997 14.3537 10.5882C13.8097 10.8767 13.3479 11.3085 13.0144 11.8405H12.9286V10.4513H10.0487V20.6474H13.1124V15.2243C13.0681 14.6689 13.2364 14.1178 13.5805 13.6906C13.9247 13.2635 14.4171 12.9948 14.9507 12.943H15.0671C16.0413 12.943 16.7644 13.5802 16.7644 15.1861V20.6474H19.8281L19.8526 14.4533Z" stroke="#EA138C" stroke-width="1.55963" stroke-linejoin="round"/>
</svg>
