<svg width="26" height="26" viewBox="0 0 26 26" fill="none" xmlns="http://www.w3.org/2000/svg">
<path d="M23.8346 3.76013V22.2405C23.8346 22.663 23.6668 23.0683 23.368 23.367C23.0692 23.6658 22.664 23.8337 22.2415 23.8337H3.76111C3.33858 23.8337 2.93336 23.6658 2.63459 23.367C2.33582 23.0683 2.16797 22.663 2.16797 22.2405V3.76013C2.16797 3.3376 2.33582 2.93238 2.63459 2.63361C2.93336 2.33484 3.33858 2.16699 3.76111 2.16699H22.2415C22.664 2.16699 23.0692 2.33484 23.368 2.63361C23.6668 2.93238 23.8346 3.3376 23.8346 3.76013V3.76013ZM8.54052 10.4513H5.35424V20.6474H8.54052V10.4513ZM8.82728 6.9464C8.82896 6.70539 8.78315 6.4664 8.69247 6.24309C8.60178 6.01978 8.468 5.81652 8.29876 5.64491C8.12952 5.4733 7.92814 5.33671 7.70611 5.24293C7.48408 5.14916 7.24575 5.10003 7.00473 5.09836H6.94738C6.45725 5.09836 5.98719 5.29307 5.64062 5.63964C5.29405 5.98622 5.09934 6.45627 5.09934 6.9464C5.09934 7.43653 5.29405 7.90659 5.64062 8.25316C5.98719 8.59974 6.45725 8.79444 6.94738 8.79444V8.79444C7.18841 8.80037 7.42825 8.75875 7.65319 8.67196C7.87814 8.58516 8.08377 8.4549 8.25835 8.2886C8.43293 8.12231 8.57303 7.92324 8.67065 7.70279C8.76827 7.48233 8.8215 7.24479 8.82728 7.00376V6.9464ZM20.6484 14.4533C20.6484 11.3881 18.6984 10.1964 16.7611 10.1964C16.1268 10.1646 15.4953 10.2997 14.9295 10.5882C14.3637 10.8767 13.8834 11.3085 13.5366 11.8405H13.4474V10.4513H10.4523V20.6474H13.6386V15.2243C13.5925 14.6689 13.7675 14.1178 14.1254 13.6906C14.4834 13.2635 14.9954 12.9948 15.5503 12.943H15.6714C16.6846 12.943 17.4366 13.5802 17.4366 15.1861V20.6474H20.6229L20.6484 14.4533Z" stroke="#606060" stroke-width="1.55963" stroke-linejoin="round"/>
</svg>
