<svg width="25" height="26" viewBox="0 0 25 26" fill="none" xmlns="http://www.w3.org/2000/svg">
<path d="M22.9168 3.76013V22.2405C22.9168 22.663 22.7554 23.0683 22.4682 23.367C22.1809 23.6658 21.7912 23.8337 21.385 23.8337H3.61536C3.20908 23.8337 2.81945 23.6658 2.53217 23.367C2.24489 23.0683 2.0835 22.663 2.0835 22.2405V3.76013C2.0835 3.3376 2.24489 2.93238 2.53217 2.63361C2.81945 2.33484 3.20908 2.16699 3.61536 2.16699H21.385C21.7912 2.16699 22.1809 2.33484 22.4682 2.63361C22.7554 2.93238 22.9168 3.3376 22.9168 3.76013V3.76013ZM8.21095 10.4513H5.14722V20.6474H8.21095V10.4513ZM8.48668 6.9464C8.4883 6.70539 8.44425 6.4664 8.35705 6.24309C8.26986 6.01978 8.14122 5.81652 7.97849 5.64491C7.81576 5.4733 7.62212 5.33671 7.40863 5.24293C7.19514 5.14916 6.96598 5.10003 6.73423 5.09836H6.67908C6.2078 5.09836 5.75583 5.29307 5.42258 5.63964C5.08934 5.98622 4.90212 6.45627 4.90212 6.9464C4.90212 7.43653 5.08934 7.90659 5.42258 8.25316C5.75583 8.59974 6.2078 8.79444 6.67908 8.79444V8.79444C6.91085 8.80037 7.14146 8.75875 7.35775 8.67196C7.57404 8.58516 7.77177 8.4549 7.93963 8.2886C8.1075 8.12231 8.24221 7.92324 8.33607 7.70279C8.42994 7.48233 8.48112 7.24479 8.48668 7.00376V6.9464ZM19.8531 14.4533C19.8531 11.3881 17.9781 10.1964 16.1154 10.1964C15.5055 10.1646 14.8982 10.2997 14.3542 10.5882C13.8102 10.8767 13.3484 11.3085 13.0149 11.8405H12.9291V10.4513H10.0492V20.6474H13.1129V15.2243C13.0686 14.6689 13.2368 14.1178 13.581 13.6906C13.9252 13.2635 14.4176 12.9948 14.9511 12.943H15.0676C16.0418 12.943 16.7649 13.5802 16.7649 15.1861V20.6474H19.8286L19.8531 14.4533Z" stroke="#EA138C" stroke-width="1.55963" stroke-linejoin="round"/>
</svg>
