<svg width="39" height="39" viewBox="0 0 39 39" fill="none" xmlns="http://www.w3.org/2000/svg">
<g clip-path="url(#clip0_444_419)">
<path d="M29.6054 0.3561C29.7186 0.242603 29.8531 0.152554 30.0012 0.0911137C30.1492 0.029673 30.308 -0.00195313 30.4683 -0.00195312C30.6286 -0.00195312 30.7873 0.029673 30.9354 0.0911137C31.0835 0.152554 31.2179 0.242603 31.3312 0.3561L38.6437 7.6686C38.7572 7.78181 38.8472 7.9163 38.9086 8.06437C38.9701 8.21243 39.0017 8.37117 39.0017 8.53148C39.0017 8.69178 38.9701 8.85052 38.9086 8.99858C38.8472 9.14665 38.7572 9.28114 38.6437 9.39435L14.2687 33.7694C14.1517 33.8855 14.0124 33.9767 13.8592 34.0375L1.67165 38.9125C1.45017 39.0011 1.20754 39.0228 0.973844 38.9749C0.740145 38.927 0.525655 38.8115 0.356964 38.6428C0.188273 38.4741 0.0728004 38.2596 0.0248609 38.0259C-0.0230785 37.7922 -0.0013762 37.5496 0.0872773 37.3281L4.96228 25.1406C5.02304 24.9874 5.11425 24.8481 5.2304 24.7311L29.6054 0.3561ZM27.3166 6.09398L32.9058 11.6832L36.0575 8.53148L30.4683 2.94229L27.3166 6.09398ZM31.1825 13.4065L25.5933 7.81729L9.74953 23.661V24.3752H10.9683C11.2915 24.3752 11.6015 24.5036 11.8301 24.7322C12.0586 24.9607 12.187 25.2707 12.187 25.594V26.8127H13.4058C13.729 26.8127 14.039 26.9411 14.2676 27.1697C14.4961 27.3982 14.6245 27.7082 14.6245 28.0315V29.2502H15.3387L31.1825 13.4065ZM7.39003 26.0205L7.13165 26.2789L3.40715 35.5926L12.7208 31.8681L12.9792 31.6097C12.7467 31.5229 12.5463 31.3671 12.4047 31.1632C12.2632 30.9594 12.1872 30.7172 12.187 30.469V29.2502H10.9683C10.645 29.2502 10.3351 29.1218 10.1065 28.8933C9.87793 28.6647 9.74953 28.3547 9.74953 28.0315V26.8127H8.53078C8.28259 26.8125 8.04038 26.7366 7.83652 26.595C7.63267 26.4535 7.47689 26.253 7.39003 26.0205Z" fill="black"/>
</g>
<defs>
<clipPath id="clip0_444_419">
<rect width="39" height="39" fill="white"/>
</clipPath>
</defs>
</svg>
