<svg width="24" height="24" viewBox="0 0 24 24" fill="none" xmlns="http://www.w3.org/2000/svg">
<path fill-rule="evenodd" clip-rule="evenodd" d="M8.3673 6.65527C6.91791 7.45784 5.77504 8.71774 5.11714 10.2383C4.45923 11.7588 4.32331 13.4544 4.7306 15.0603C5.13789 16.6662 6.06546 18.0921 7.3685 19.1153C8.67154 20.1385 10.2767 20.7014 11.9334 20.7162C13.5901 20.7311 15.2051 20.1969 16.5262 19.1971C17.8473 18.1974 18.8002 16.7884 19.2362 15.19C19.6721 13.5916 19.5665 11.8938 18.9359 10.3618C18.3053 8.82975 17.1851 7.54962 15.7503 6.72127L16.5003 5.42227C18.2218 6.41655 19.5656 7.95283 20.3221 9.79129C21.0785 11.6298 21.2049 13.6669 20.6816 15.5848C20.1583 17.5027 19.0148 19.1934 17.4294 20.3929C15.8441 21.5924 13.9062 22.2332 11.9183 22.2154C9.93038 22.1976 8.00431 21.5221 6.44074 20.2943C4.87718 19.0665 3.76412 17.3556 3.27532 15.4287C2.78652 13.5017 2.94948 11.4671 3.73877 9.64252C4.52805 7.81793 5.89925 6.30601 7.6383 5.34277L8.3673 6.65527Z" fill="#857B7B"/>
<path fill-rule="evenodd" clip-rule="evenodd" d="M11.25 12V1.5H12.75V12H11.25Z" fill="#857B7B"/>
</svg>
