<svg width="27" height="35" viewBox="0 0 27 35" fill="none" xmlns="http://www.w3.org/2000/svg">
<path d="M20.8164 4.83264H25.4895C26.3392 4.83264 27 5.51604 27 6.3947V7.51743C27 8.24965 26.4808 8.93305 25.8199 9.0795V32.2664C25.8199 33.7796 24.5927 35 23.0822 35H3.91783C2.40734 35 1.22727 33.7796 1.22727 32.2664V9.0795C0.566434 8.93305 0 8.24965 0 7.51743V6.3947C0 5.51604 0.708042 4.83264 1.55769 4.83264H6.18357V2.78243C6.18357 1.26918 7.36364 0 8.87413 0H18.1259C19.6364 0 20.8164 1.26918 20.8164 2.78243V4.83264ZM18.1259 2.44073H8.87413C8.63811 2.44073 8.4965 2.58717 8.4965 2.78243V4.83264H18.5035V2.78243C18.5035 2.58717 18.3619 2.44073 18.1259 2.44073ZM4.67308 31.8759H22.3741C22.5629 31.8759 22.7045 31.6318 22.7045 31.4365V9.12831H4.29545V31.4365C4.29545 31.6318 4.43706 31.8759 4.67308 31.8759ZM8.30769 30.0697H8.02448C7.17482 30.0697 6.46678 29.3375 6.46678 28.4589V12.4965C6.46678 11.6667 7.17482 10.9833 8.02448 10.9833H8.30769C9.11014 10.9833 9.81818 11.6667 9.81818 12.4965V28.4589C9.81818 29.3375 9.11014 30.0697 8.30769 30.0697ZM13.6416 30.0697H13.4056C12.5559 30.0697 11.8479 29.3375 11.8479 28.4589V12.4965C11.8479 11.6667 12.5559 10.9833 13.4056 10.9833H13.6416C14.4913 10.9833 15.1993 11.6667 15.1993 12.4965V28.4589C15.1993 29.3375 14.4913 30.0697 13.6416 30.0697ZM18.9755 30.0697H18.7395C17.8899 30.0697 17.229 29.3375 17.229 28.4589V12.4965C17.229 11.6667 17.8899 10.9833 18.7395 10.9833H18.9755C19.8252 10.9833 20.5332 11.6667 20.5332 12.4965V28.4589C20.5332 29.3375 19.8252 30.0697 18.9755 30.0697Z" fill="black"/>
</svg>
