<svg width="28" height="27" viewBox="0 0 28 27" fill="none" xmlns="http://www.w3.org/2000/svg">
<path d="M25.6668 6.66518C24.8088 7.03182 23.887 7.27955 22.9179 7.39153C23.9065 6.82075 24.6649 5.91504 25.0225 4.83692C24.0976 5.36607 23.0731 5.75055 21.9828 5.95666C21.1093 5.06087 19.8659 4.5 18.4888 4.5C15.8458 4.5 13.7022 6.56707 13.7022 9.11772C13.7022 9.47842 13.7453 9.82921 13.8255 10.1681C9.84546 9.97487 6.31967 8.1367 3.95818 5.34427C3.54713 6.02801 3.31077 6.82075 3.31077 7.66502C3.31077 9.26636 4.15651 10.6804 5.44002 11.5078C4.65491 11.4831 3.91707 11.276 3.27172 10.9301V10.9896C3.27172 13.2261 4.92106 15.092 7.11197 15.5161C6.70914 15.6212 6.28678 15.6767 5.85107 15.6767C5.54278 15.6767 5.24168 15.6489 4.94984 15.5954C5.55922 17.4286 7.32674 18.7644 9.42208 18.8001C7.78301 20.0387 5.7185 20.777 3.47622 20.777C3.08983 20.777 2.70858 20.7552 2.3335 20.7126C4.45247 22.0236 6.9681 22.7866 9.67076 22.7866C18.4775 22.7866 23.292 15.753 23.292 9.65282C23.292 9.45464 23.2868 9.25447 23.2776 9.05628C24.2127 8.40425 25.0246 7.59268 25.6648 6.66815L25.6668 6.66518Z" stroke="#EA138C" stroke-width="1.55963" stroke-linejoin="round"/>
</svg>
