<svg width="28" height="27" viewBox="0 0 28 27" fill="none" xmlns="http://www.w3.org/2000/svg">
<path d="M25.6634 6.66566C24.8053 7.03231 23.8836 7.28004 22.9145 7.39201C23.9031 6.82124 24.6615 5.91553 25.0191 4.8374C24.0942 5.36656 23.0697 5.75104 21.9794 5.95715C21.1059 5.06135 19.8624 4.50049 18.4854 4.50049C15.8424 4.50049 13.6987 6.56756 13.6987 9.11821C13.6987 9.47891 13.7419 9.8297 13.822 10.1686C9.84204 9.97536 6.31625 8.13719 3.95476 5.34476C3.54371 6.0285 3.30735 6.82124 3.30735 7.66551C3.30735 9.26685 4.15309 10.6809 5.4366 11.5083C4.65149 11.4836 3.91365 11.2765 3.2683 10.9306V10.9901C3.2683 13.2266 4.91765 15.0925 7.10855 15.5166C6.70572 15.6217 6.28337 15.6772 5.84765 15.6772C5.53936 15.6772 5.23827 15.6494 4.94642 15.5959C5.5558 17.4291 7.32333 18.7649 9.41866 18.8006C7.77959 20.0392 5.71509 20.7775 3.4728 20.7775C3.08641 20.7775 2.70516 20.7557 2.33008 20.7131C4.44905 22.0241 6.96468 22.7871 9.66735 22.7871C18.4741 22.7871 23.2886 15.7535 23.2886 9.65331C23.2886 9.45513 23.2834 9.25496 23.2742 9.05677C24.2093 8.40474 25.0211 7.59317 25.6614 6.66864L25.6634 6.66566Z" stroke="#606060" stroke-width="1.55963" stroke-linejoin="round"/>
</svg>
