<svg width="28" height="27" viewBox="0 0 28 27" fill="none" xmlns="http://www.w3.org/2000/svg">
<path d="M25.6663 6.66518C24.8083 7.03182 23.8865 7.27955 22.9174 7.39153C23.906 6.82075 24.6644 5.91504 25.022 4.83692C24.0972 5.36607 23.0726 5.75055 21.9823 5.95666C21.1088 5.06087 19.8654 4.5 18.4884 4.5C15.8453 4.5 13.7017 6.56707 13.7017 9.11772C13.7017 9.47842 13.7448 9.82921 13.825 10.1681C9.84497 9.97487 6.31918 8.1367 3.95769 5.34427C3.54664 6.02801 3.31028 6.82075 3.31028 7.66502C3.31028 9.26636 4.15602 10.6804 5.43953 11.5078C4.65442 11.4831 3.91658 11.276 3.27123 10.9301V10.9896C3.27123 13.2261 4.92058 15.092 7.11148 15.5161C6.70865 15.6212 6.28629 15.6767 5.85058 15.6767C5.54229 15.6767 5.2412 15.6489 4.94935 15.5954C5.55873 17.4286 7.32626 18.7644 9.42159 18.8001C7.78252 20.0387 5.71802 20.777 3.47573 20.777C3.08934 20.777 2.70809 20.7552 2.33301 20.7126C4.45198 22.0236 6.96761 22.7866 9.67028 22.7866C18.4771 22.7866 23.2915 15.753 23.2915 9.65282C23.2915 9.45464 23.2864 9.25447 23.2771 9.05628C24.2122 8.40425 25.0241 7.59268 25.6643 6.66815L25.6663 6.66518Z" stroke="#EA138C" stroke-width="1.55963" stroke-linejoin="round"/>
</svg>
