<svg width="126" height="86" viewBox="0 0 126 86" fill="none" xmlns="http://www.w3.org/2000/svg">
<path d="M0 78.0254C0 80.2345 1.79086 82.0254 4 82.0254C6.20914 82.0254 8 80.2345 8 78.0254C8 75.8163 6.20914 74.0254 4 74.0254C1.79086 74.0254 0 75.8163 0 78.0254ZM211.243 10.0228C211.243 12.2319 213.034 14.0228 215.243 14.0228C217.452 14.0228 219.243 12.2319 219.243 10.0228C219.243 7.81363 217.452 6.02277 215.243 6.02277C213.034 6.02277 211.243 7.81363 211.243 10.0228ZM3.71657 78.7198C4.18345 78.9104 4.66256 79.0995 5.15349 79.2869L5.68835 77.8855C5.20789 77.7021 4.73945 77.5172 4.28343 77.331L3.71657 78.7198ZM11.0877 81.2781C12.0617 81.5644 13.0658 81.8412 14.0981 82.1066L14.4716 80.6539C13.4558 80.3927 12.4681 80.1204 11.5107 79.839L11.0877 81.2781ZM20.1813 83.4644C21.1845 83.6557 22.2071 83.835 23.2476 84.001L23.4839 82.5197C22.4583 82.3561 21.4506 82.1794 20.4622 81.991L20.1813 83.4644ZM29.4207 84.7987C30.4422 84.9002 31.4769 84.9879 32.5236 85.0609L32.6279 83.5645C31.596 83.4926 30.576 83.4061 29.569 83.3061L29.4207 84.7987ZM38.7513 85.31C39.7826 85.3206 40.8228 85.316 41.8712 85.2952L41.8415 83.7955C40.8084 83.816 39.7831 83.8205 38.7667 83.8101L38.7513 85.31ZM48.0922 84.9822C49.1203 84.8987 50.1541 84.7988 51.1929 84.6816L51.0248 83.191C50.0018 83.3064 48.9835 83.4048 47.9708 83.4871L48.0922 84.9822ZM57.3683 83.7847C58.3845 83.6035 59.4038 83.4047 60.4256 83.1877L60.114 81.7205C59.1085 81.934 58.1052 82.1296 57.105 82.308L57.3683 83.7847ZM66.4767 81.6901C67.473 81.4076 68.4703 81.1066 69.4678 80.7865L69.0094 79.3582C68.0284 79.6731 67.0475 79.9691 66.0675 80.247L66.4767 81.6901ZM75.3304 78.6786C76.2913 78.2948 77.2513 77.892 78.2097 77.4696L77.6047 76.097C76.6625 76.5123 75.7188 76.9083 74.7741 77.2856L75.3304 78.6786ZM83.822 74.7553C84.736 74.2727 85.6476 73.7707 86.556 73.249L85.8091 71.9482C84.916 72.4611 84.02 72.9545 83.1216 73.4289L83.822 74.7553ZM91.85 69.9555C92.7073 69.3794 93.5609 68.7842 94.4102 68.1694L93.5307 66.9543C92.6955 67.5588 91.8563 68.1441 91.0134 68.7105L91.85 69.9555ZM99.3299 64.3444C100.124 63.6825 100.913 63.0021 101.697 62.3025L100.699 61.1832C99.9269 61.8716 99.1504 62.5411 98.3694 63.1922L99.3299 64.3444ZM106.205 58.0088C106.93 57.2717 107.651 56.5166 108.365 55.7433L107.264 54.7252C106.56 55.4871 105.85 56.2307 105.136 56.9566L106.205 58.0088ZM112.451 51.0425C113.099 50.2498 113.742 49.4404 114.379 48.6141L113.191 47.6982C112.563 48.5132 111.929 49.3113 111.29 50.0929L112.451 51.0425ZM118.043 43.5765C118.339 43.1451 118.634 42.7096 118.927 42.2701L117.679 41.438C117.389 41.872 117.099 42.3019 116.806 42.7277L118.043 43.5765ZM118.927 42.2701C119.2 41.8601 119.474 41.4539 119.749 41.0515L118.509 40.2062C118.232 40.613 117.955 41.0236 117.679 41.438L118.927 42.2701ZM123.109 36.3506C123.692 35.5725 124.277 34.8105 124.864 34.0644L123.686 33.1367C123.091 33.8922 122.498 34.6635 121.908 35.451L123.109 36.3506ZM128.542 29.6254C129.186 28.8874 129.832 28.1672 130.48 27.4647L129.377 26.4478C128.72 27.1605 128.065 27.8908 127.412 28.639L128.542 29.6254ZM134.507 23.3414C135.206 22.6663 135.907 22.0105 136.609 21.3736L135.601 20.2627C134.887 20.9101 134.175 21.5765 133.465 22.2622L134.507 23.3414ZM141.001 17.6411C141.761 17.0384 142.521 16.4565 143.282 15.8948L142.391 14.6881C141.616 15.2602 140.842 15.8527 140.069 16.4662L141.001 17.6411ZM148.037 12.6451C148.858 12.1284 149.678 11.6339 150.498 11.161L149.748 9.86169C148.911 10.3443 148.075 10.8488 147.238 11.3759L148.037 12.6451ZM155.587 8.49139C156.464 8.07614 157.339 7.68423 158.213 7.31486L157.629 5.9333C156.736 6.31088 155.841 6.7114 154.945 7.13567L155.587 8.49139ZM163.588 5.30975C164.508 5.01134 165.425 4.73664 166.338 4.48466L165.939 3.03872C165.005 3.29656 164.067 3.57761 163.125 3.88288L163.588 5.30975ZM171.943 3.20488C172.895 3.03225 173.841 2.88309 174.78 2.75621L174.579 1.26971C173.618 1.39958 172.65 1.55227 171.676 1.72896L171.943 3.20488ZM180.498 2.2456C181.464 2.20314 182.42 2.18311 183.368 2.18412L183.369 0.684119C182.4 0.683089 181.42 0.703586 180.432 0.747043L180.498 2.2456ZM189.102 2.44723C190.067 2.5348 191.019 2.6431 191.956 2.77042L192.158 1.28407C191.199 1.15379 190.225 1.04297 189.238 0.953365L189.102 2.44723ZM197.609 3.79629C198.558 4.01264 199.488 4.24726 200.397 4.49794L200.796 3.05195C199.865 2.79534 198.914 2.55521 197.943 2.3338L197.609 3.79629ZM205.859 6.27935C206.776 6.62664 207.662 6.9883 208.516 7.36118L209.116 5.98649C208.239 5.60368 207.33 5.2327 206.391 4.87669L205.859 6.27935ZM213.632 9.93207C214.05 10.1734 214.455 10.4162 214.847 10.6597L215.639 9.38581C215.233 9.13349 214.814 8.88235 214.382 8.63303L213.632 9.93207Z" fill="#EA138C"/>
</svg>
