<svg width="109" height="153" viewBox="0 0 109 153" fill="none" xmlns="http://www.w3.org/2000/svg">
<path d="M-67.9787 150.512C-67.1286 152.551 -64.7865 153.515 -62.7475 152.665C-60.7084 151.815 -59.7446 149.473 -60.5947 147.434C-61.4448 145.395 -63.7869 144.431 -65.8259 145.281C-67.865 146.131 -68.8288 148.473 -67.9787 150.512ZM100.83 6.45749C101.68 8.49652 104.022 9.46034 106.061 8.61024C108.1 7.76014 109.064 5.41804 108.214 3.37902C107.364 1.33999 105.022 0.376174 102.983 1.22627C100.944 2.07637 99.9798 4.41847 100.83 6.45749ZM-64.2811 149.723C-63.7768 149.719 -63.2618 149.709 -62.7366 149.693L-62.7822 148.194C-63.2962 148.21 -63.7998 148.219 -64.2923 148.223L-64.2811 149.723ZM-56.4931 149.248C-55.4839 149.137 -54.4506 149.006 -53.3957 148.854L-53.61 147.369C-54.6481 147.519 -55.6645 147.648 -56.6565 147.757L-56.4931 149.248ZM-47.2585 147.766C-46.2589 147.557 -45.2461 147.329 -44.2218 147.082L-44.5737 145.623C-45.5832 145.867 -46.5813 146.092 -47.5662 146.298L-47.2585 147.766ZM-38.217 145.442C-37.2352 145.143 -36.2464 144.826 -35.2522 144.49L-35.7318 143.069C-36.7119 143.4 -37.6866 143.712 -38.6546 144.008L-38.217 145.442ZM-29.4082 142.324C-28.4523 141.937 -27.4939 141.532 -26.5342 141.11L-27.1388 139.737C-28.0844 140.153 -29.029 140.552 -29.9712 140.933L-29.4082 142.324ZM-20.9128 138.427C-19.996 137.954 -19.0802 137.464 -18.1665 136.956L-18.8952 135.645C-19.7951 136.145 -20.6971 136.628 -21.6002 137.094L-20.9128 138.427ZM-12.8117 133.752C-11.9435 133.194 -11.0792 132.618 -10.2196 132.025L-11.0718 130.79C-11.9177 131.374 -12.7684 131.941 -13.6231 132.49L-12.8117 133.752ZM-5.21073 128.314C-4.39986 127.67 -3.59523 127.008 -2.79772 126.329L-3.7704 125.187C-4.55473 125.855 -5.34612 126.506 -6.14373 127.139L-5.21073 128.314ZM1.80232 122.127C2.54157 121.403 3.27261 120.662 3.99469 119.903L2.90811 118.869C2.19827 119.615 1.47958 120.344 0.752794 121.055L1.80232 122.127ZM8.13035 115.238C8.78825 114.441 9.43643 113.627 10.0742 112.796L8.8842 111.883C8.25727 112.7 7.62013 113.5 6.97343 114.283L8.13035 115.238ZM13.6931 107.719C14.2627 106.857 14.8215 105.979 15.3689 105.085L14.0896 104.302C13.5513 105.181 13.0018 106.044 12.4418 106.892L13.6931 107.719ZM18.4378 99.6614C18.9159 98.745 19.3825 97.8132 19.8371 96.8658L18.4847 96.2169C18.0373 97.1493 17.5783 98.0661 17.1079 98.9675L18.4378 99.6614ZM22.3454 91.1682C22.7314 90.2086 23.1057 89.2345 23.4677 88.2457L22.0591 87.73C21.7025 88.704 21.3339 89.6634 20.9538 90.6083L22.3454 91.1682ZM25.4298 82.3348C25.7232 81.3536 26.0051 80.3591 26.2751 79.3513L24.8262 78.9631C24.5599 79.9571 24.2819 80.9377 23.9927 81.905L25.4298 82.3348ZM27.7184 73.2917C27.8256 72.7796 27.9299 72.2643 28.0313 71.7458L26.5591 71.4581C26.4591 71.97 26.3561 72.4787 26.2502 72.9842L27.7184 73.2917ZM28.0313 71.7458C28.1258 71.2622 28.2223 70.7819 28.3208 70.3049L26.8518 70.0015C26.7522 70.4838 26.6546 70.9693 26.5591 71.4581L28.0313 71.7458ZM29.6132 64.6729C29.852 63.7304 30.099 62.8019 30.3539 61.8873L28.909 61.4845C28.6509 62.4107 28.4008 63.3506 28.1591 64.3046L29.6132 64.6729ZM32.04 56.375C32.3506 55.4459 32.6698 54.5326 32.9975 53.6349L31.5884 53.1206C31.256 54.0313 30.9322 54.9575 30.6174 55.8994L32.04 56.375ZM35.1274 48.2794C35.5131 47.3873 35.9075 46.5123 36.3103 45.6544L34.9525 45.0169C34.5431 45.889 34.1423 46.778 33.7506 47.6843L35.1274 48.2794ZM38.9285 40.5189C39.3975 39.6704 39.8752 38.8408 40.3612 38.0296L39.0745 37.2587C38.5795 38.0849 38.0931 38.9296 37.6157 39.7933L38.9285 40.5189ZM43.5001 33.2002C44.0585 32.4075 44.6254 31.6354 45.2 30.8835L44.0082 29.9727C43.4217 30.7401 42.8434 31.5278 42.2739 32.3363L43.5001 33.2002ZM48.87 26.4611C49.5197 25.7403 50.177 25.0417 50.8411 24.3646L49.7703 23.3143C49.0914 24.0064 48.4197 24.7204 47.7559 25.4568L48.87 26.4611ZM55.0307 20.4456C55.7653 19.816 56.5059 19.2096 57.2516 18.6257L56.3269 17.4447C55.5638 18.0422 54.8061 18.6626 54.0546 19.3066L55.0307 20.4456ZM61.9328 15.2875C62.7448 14.762 63.5604 14.2603 64.3785 13.7818L63.6212 12.487C62.7837 12.9768 61.9488 13.4903 61.1178 14.0283L61.9328 15.2875ZM69.4591 11.1104C70.3343 10.6995 71.2098 10.3128 72.0844 9.94925L71.5086 8.56414C70.6136 8.93619 69.7175 9.332 68.8217 9.75256L69.4591 11.1104ZM77.4789 7.98527C78.4032 7.6948 79.3232 7.42856 80.2374 7.18538L79.8518 5.73579C78.9164 5.98461 77.975 6.25704 77.0292 6.55428L77.4789 7.98527ZM85.8498 5.95695C86.809 5.79141 87.7573 5.65025 88.6925 5.53195L88.5043 4.04381C87.547 4.16491 86.5764 4.30939 85.5947 4.47879L85.8498 5.95695ZM94.4199 5.07416C95.3994 5.04206 96.3565 5.03486 97.2883 5.05038L97.3133 3.55058C96.3567 3.53465 95.3749 3.54206 94.3708 3.57497L94.4199 5.07416ZM103 5.45441C103.479 5.51631 103.946 5.58451 104.401 5.65854L104.642 4.17797C104.17 4.10128 103.687 4.03074 103.192 3.9668L103 5.45441Z" fill="#EA138C"/>
</svg>
