<svg width="31" height="33" viewBox="0 0 31 33" fill="none" xmlns="http://www.w3.org/2000/svg">
<path fill-rule="evenodd" clip-rule="evenodd" d="M26.6012 6.13298C27.8246 6.4816 28.7861 7.50504 29.1135 8.80737C29.7053 11.1655 29.7077 16.0885 29.7077 16.0885C29.7077 16.0885 29.7077 21.0115 29.1135 23.3696C28.7861 24.672 27.8246 25.6954 26.6012 26.0439C24.386 26.6765 15.4993 26.6765 15.4993 26.6765C15.4993 26.6765 6.6127 26.6765 4.39747 26.0439C3.17408 25.6954 2.21266 24.672 1.88517 23.3696C1.29102 21.0115 1.29102 16.0885 1.29102 16.0885C1.29102 16.0885 1.29102 11.1655 1.88517 8.80737C2.21266 7.50504 3.17408 6.4816 4.39747 6.13298C6.6127 5.50049 15.4993 5.50049 15.4993 5.50049C15.4993 5.50049 24.386 5.50049 26.6012 6.13298ZM20.0375 16.0889L12.655 20.6259V11.5519L20.0375 16.0889Z" stroke="#606060" stroke-width="1.55963" stroke-linejoin="round"/>
</svg>
