<svg width="35" height="39" viewBox="0 0 35 39" fill="none" xmlns="http://www.w3.org/2000/svg">
<path fill-rule="evenodd" clip-rule="evenodd" d="M30.0345 7.24847C31.4157 7.66047 32.5013 8.86999 32.871 10.4091C33.5391 13.196 33.5418 19.0141 33.5418 19.0141C33.5418 19.0141 33.5418 24.8321 32.871 27.6191C32.5013 29.1582 31.4157 30.3677 30.0345 30.7796C27.5335 31.5271 17.5001 31.5271 17.5001 31.5271C17.5001 31.5271 7.46685 31.5271 4.96579 30.7796C3.58453 30.3677 2.49906 29.1582 2.12932 27.6191C1.4585 24.8321 1.4585 19.0141 1.4585 19.0141C1.4585 19.0141 1.4585 13.196 2.12932 10.4091C2.49906 8.86999 3.58453 7.66047 4.96579 7.24847C7.46685 6.50098 17.5001 6.50098 17.5001 6.50098C17.5001 6.50098 27.5335 6.50098 30.0345 7.24847ZM22.6239 19.0146L14.2887 24.3764V13.6526L22.6239 19.0146Z" stroke="#A08DA6" stroke-width="1.55963" stroke-linejoin="round"/>
</svg>
