<svg width="30" height="33" viewBox="0 0 30 33" fill="none" xmlns="http://www.w3.org/2000/svg">
<path fill-rule="evenodd" clip-rule="evenodd" d="M25.7437 6.13151C26.9276 6.48013 27.8581 7.50357 28.175 8.80591C28.7477 11.164 28.75 16.087 28.75 16.087C28.75 16.087 28.75 21.01 28.175 23.3682C27.8581 24.6705 26.9276 25.6939 25.7437 26.0425C23.6 26.675 15 26.675 15 26.675C15 26.675 6.40002 26.675 4.25625 26.0425C3.07232 25.6939 2.14192 24.6705 1.82499 23.3682C1.25 21.01 1.25 16.087 1.25 16.087C1.25 16.087 1.25 11.164 1.82499 8.80591C2.14192 7.50357 3.07232 6.48013 4.25625 6.13151C6.40002 5.49902 15 5.49902 15 5.49902C15 5.49902 23.6 5.49902 25.7437 6.13151ZM19.3917 16.0874L12.2474 20.6244V11.5504L19.3917 16.0874Z" stroke="#EA138C" stroke-width="1.55963" stroke-linejoin="round"/>
</svg>
